<?xml version="1.0" standalone="no"?>
<!DOCTYPE svg PUBLIC "-//W3C//DTD SVG 20010904//EN"
 "http://www.w3.org/TR/2001/REC-SVG-20010904/DTD/svg10.dtd">
<svg version="1.0" xmlns="http://www.w3.org/2000/svg"
 width="388.000000pt" height="388.000000pt" viewBox="0 0 388.000000 388.000000"
 preserveAspectRatio="xMidYMid meet">
<metadata>
Created by potrace 1.11, written by Peter Selinger 2001-2013
</metadata>
<g transform="translate(0.000000,388.000000) scale(0.100000,-0.100000)"
fill="#000000" stroke="none">
<path d="M2060 3865 c7 -9 11 -17 9 -18 -7 -6 -94 -32 -99 -30 -3 1 -12 -4
-20 -11 -8 -7 -30 -18 -48 -24 -18 -6 -40 -18 -48 -27 -14 -13 -106 -15 -791
-15 l-775 0 -69 -36 c-82 -43 -114 -78 -123 -132 -5 -33 -11 -42 -36 -51 -18
-6 -34 -21 -40 -36 -7 -17 -9 -583 -8 -1633 l3 -1607 47 -9 c34 -7 49 -15 57
-32 6 -13 21 -25 33 -28 13 -2 48 -9 79 -16 33 -6 66 -7 80 -2 13 5 125 7 249
6 124 -1 297 -3 385 -3 88 -1 221 -2 295 -3 74 0 224 -1 333 -1 156 0 197 -2
197 -13 0 -7 8 -17 18 -23 16 -9 16 -10 0 -16 -9 -4 -24 -3 -33 3 -30 16 -65
3 -65 -25 0 -37 55 -56 161 -54 71 1 88 -2 93 -15 5 -14 9 -13 24 7 10 13 24
39 32 57 9 24 15 30 21 20 6 -10 11 -10 20 -1 6 6 26 9 45 6 44 -7 45 11 2 25
-18 5 -25 10 -15 11 9 1 17 5 17 10 0 10 98 5 192 -10 46 -7 171 -8 390 -3
178 4 427 8 553 9 575 5 541 4 564 22 14 13 21 30 21 58 1 22 1 370 1 774 l0
734 34 39 c22 24 35 48 35 66 0 42 -18 97 -40 122 -19 22 -20 39 -21 584 -1
780 0 906 7 918 4 6 3 8 -2 5 -8 -5 -10 102 -2 130 1 4 -1 18 -6 30 -4 12 -2
31 3 42 8 15 6 25 -10 45 l-20 26 -767 0 c-422 0 -778 2 -792 5 -14 2 -33 15
-43 27 -10 13 -28 35 -40 51 -12 15 -28 25 -34 22 -7 -2 -17 5 -23 15 -6 11
-18 20 -27 20 -13 0 -13 -3 -3 -15z"/>
<path d="M1990 3840 c0 -5 5 -10 10 -10 6 0 10 5 10 10 0 6 -4 10 -10 10 -5 0
-10 -4 -10 -10z"/>
</g>
</svg>
